Coordinates
version=1
nRows=9
nColumns=24
inDegrees=yes

Units are S.I. units (second, meters, Newtons, ...)
Angles are in degrees.

endheader
time	pelvis_tilt	pelvis_list	pelvis_rotation	pelvis_tx	pelvis_ty	pelvis_tz	hip_flexion_r	hip_adduction_r	hip_rotation_r	knee_angle_r	ankle_angle_r	subtalar_angle_r	mtp_angle_r	hip_flexion_l	hip_adduction_l	hip_rotation_l	knee_angle_l	ankle_angle_l	subtalar_angle_l	mtp_angle_l	lumbar_extension	lumbar_bending	lumbar_rotation
      2.96500000	     -0.95219964	      4.76384042	      5.24622385	     -1.68051936	      0.91443481	      0.22172364	     30.65853542	     -3.99023438	     -4.62184606	    -14.12716355	     11.33909286	     -3.97328129	      0.00000000	    -13.45340727	      8.97497928	     10.85009492	    -17.55522572	     24.50554667	    -10.38791656	      0.00000000	     -8.19381544	     -4.30717586	    -15.92547272
      2.97000000	     -0.84197725	      4.54300102	      5.34782994	     -1.67290559	      0.91382161	      0.22207418	     30.61861960	     -3.76136741	     -4.62628911	    -14.96544191	     10.77429109	     -4.41483819	      0.00000000	    -13.56802100	      8.60204830	     10.37928457	    -18.43891331	     24.47448662	     -9.62112600	      0.00000000	     -8.23288605	     -3.99222511	    -16.00739939
      2.97500000	     -0.85559478	      4.32376831	      5.28148269	     -1.66528259	      0.91303982	      0.22273034	     30.73581402	     -3.42550816	     -4.27632776	    -15.82395644	     10.02290068	     -5.03625426	      0.00000000	    -13.48679302	      8.25597288	      9.58575605	    -19.40266697	     24.42907333	     -8.70521358	      0.00000000	     -8.11349607	     -3.71541154	    -15.88816310
      2.98000000	     -0.88235236	      4.06569665	      5.24018321	     -1.65768290	      0.91236369	      0.22338256	     30.86126789	     -3.06258626	     -3.98154178	    -16.69220860	      9.21057699	     -5.62570050	      0.00000000	    -13.34015261	      7.85929064	      8.82880780	    -20.44437493	     24.29490954	     -7.82297980	      0.00000000	     -7.98491781	     -3.39592503	    -15.80611785
      2.98500000	     -0.91438248	      3.77142866	      5.14486045	     -1.65007830	      0.91176966	      0.22412078	     31.00881553	     -2.63834524	     -3.69477815	    -17.58779296	      8.38512173	     -6.14293613	      0.00000000	    -13.13877517	      7.42444682	      7.99168692	    -21.55269913	     24.07096071	     -6.92912877	      0.00000000	     -7.84851115	     -3.03797164	    -15.66876379
      2.99000000	     -0.95846283	      3.44271527	      5.04321000	     -1.64250180	      0.91126866	      0.22489820	     31.17433075	     -2.17171437	     -3.40196105	    -18.50118979	      7.55616103	     -6.64708037	      0.00000000	    -12.86315461	      6.94154052	      7.11323620	    -22.74971287	     23.76808857	     -6.02066772	      0.00000000	     -7.70489089	     -2.64101177	    -15.52613310
      2.99500000	     -1.00885070	      3.08310051	      4.91584164	     -1.63492427	      0.91086541	      0.22571158	     31.35346811	     -1.66056874	     -3.11259478	    -19.43374054	      6.75010372	     -7.10926538	      0.00000000	    -12.52880650	      6.41990522	      6.20043194	    -24.02119852	     23.35475003	     -5.13045749	      0.00000000	     -7.55207940	     -2.20875442	    -15.35976001
      3.00000000	     -1.05968227	      2.70959984	      4.78276360	     -1.62738926	      0.91051906	      0.22656447	     31.54134113	     -1.11893931	     -2.76960881	    -20.39502578	      6.00424916	     -7.60870649	      0.00000000	    -12.12711567	      5.86898384	      5.26429395	    -25.39609382	     22.86152848	     -4.24847049	      0.00000000	     -7.41321676	     -1.76287511	    -15.18760458
      3.00500000	     -1.11329185	      2.30765537	      4.62701001	     -1.61980915	      0.91027042	      0.22743273	     31.72335366	     -0.54063485	     -2.45497319	    -21.35240876	      5.30949952	     -8.04581747	      0.00000000	    -11.67842649	      5.28291559	      4.33963873	    -26.83884710	     22.23243033	     -3.40922132	      0.00000000	     -7.26251184	     -1.28309954	    -15.00589817
